<?xml version="1.0" encoding="UTF-8" standalone="no"?>
<!DOCTYPE svg PUBLIC "-//W3C//DTD SVG 1.1//EN" "http://www.w3.org/Graphics/SVG/1.1/DTD/svg11.dtd">
<svg width="100%" height="100%" viewBox="0 0 300 300" version="1.1" xmlns="http://www.w3.org/2000/svg" xmlns:xlink="http://www.w3.org/1999/xlink" xml:space="preserve" xmlns:serif="http://www.serif.com/" style="fill-rule:evenodd;clip-rule:evenodd;stroke-miterlimit:2;">
    <g transform="matrix(0.881534,0,0,0.881534,-90.5948,0.941963)">
        <g transform="matrix(2.66667,0,0,2.66667,21.5033,-39.076)">
            <path d="M93.996,26.004L146.619,75.513L95.097,130.12L41.949,78.368L93.996,26.004Z" style="fill:none;stroke:rgb(151,179,165);stroke-width:1.13px;"/>
        </g>
        <g transform="matrix(2.66667,0,0,2.66667,24.4638,-39.076)">
            <path d="M99.072,83.84C95.209,83.814 91.346,83.599 86.701,83.399C90.259,76.317 93.533,69.801 96.807,63.286C97.032,63.303 97.256,63.319 97.48,63.336C97.776,65.403 98.083,67.469 98.366,69.539C98.927,73.645 99.527,77.748 99.973,81.867C100.043,82.515 99.386,83.842 99.072,83.84ZM105.302,86.421C106.594,85.93 107.863,85.376 109.142,84.848C107.624,84.33 106.278,83.976 104.992,84.127C103.43,84.31 103.038,83.626 102.953,82.336C102.879,81.221 102.711,80.109 102.683,78.994C102.601,75.678 102.591,72.361 102.505,69.046C102.46,67.321 102.194,65.595 102.237,63.875C102.317,60.671 102.585,57.473 102.682,54.27C102.698,53.738 102.382,53.038 101.983,52.679C100.396,51.254 98.42,50.96 96.185,50.79C96.426,52.725 96.671,54.397 96.823,56.078C96.875,56.656 96.87,57.366 96.585,57.825C95.341,59.829 93.874,61.698 92.703,63.74C91.669,65.544 91.036,67.578 90.018,69.394C87.997,72.998 85.489,76.372 83.847,80.132C82.7,82.757 81.826,84.768 78.511,84.44C77.288,84.318 76.864,85.81 77.498,86.226C79.567,87.584 80.3,89.588 81.158,91.697C81.737,93.122 83.446,93.268 83.838,92.074C84.437,90.252 85.654,90.13 87.178,90.153C87.844,90.163 88.518,89.936 89.182,89.787C92.882,88.956 96.58,88.117 100.534,87.223C100.989,89.838 101.955,92.246 101.662,94.49C101.276,97.447 102.736,98.285 104.884,99.006C104.757,97.885 104.709,96.789 104.494,95.726C104.133,93.939 103.7,92.164 103.233,90.401C102.932,89.266 104.169,86.851 105.302,86.421Z" style="fill:rgb(81,33,97);fill-rule:nonzero;"/>
        </g>
    </g>
</svg>
