<?xml version="1.0" encoding="UTF-8" standalone="no"?>
<!DOCTYPE svg PUBLIC "-//W3C//DTD SVG 1.1//EN" "http://www.w3.org/Graphics/SVG/1.1/DTD/svg11.dtd">
<svg width="100%" height="100%" viewBox="0 0 800 800" version="1.1" xmlns="http://www.w3.org/2000/svg" xmlns:xlink="http://www.w3.org/1999/xlink" xml:space="preserve" xmlns:serif="http://www.serif.com/" style="fill-rule:evenodd;clip-rule:evenodd;stroke-linejoin:round;stroke-miterlimit:2;">
    <g id="Layer_2">
        <g id="invisible_box">
            <rect x="0" y="0" width="800" height="800" style="fill:none;"/>
            <rect x="0" y="0" width="800" height="800" style="fill:none;"/>
        </g>
        <g id="icons_Q2">
            <path d="M733.333,101.667L733.333,698.333C733.228,699.617 732.631,700.812 731.667,701.667C730.838,717.796 717.796,730.838 701.667,731.667L526.667,731.667L526.667,475L608.333,475C613.333,475 613.333,475 615,470L620,428.333C621.667,411.667 623.333,395 626.667,378.333C630,361.667 626.667,373.333 623.333,373.333L526.667,373.333L526.667,308.333C526.667,303.333 528.333,296.667 528.333,291.667C529.82,277.655 540.988,266.487 555,265L576.667,261.667L626.667,261.667C630,261.667 630,261.667 630,258.333L630,173.333C630,171.667 630,170 626.667,170L550,170C531.002,169.479 512.15,173.478 495,181.667C469.38,190.289 448.32,208.942 436.667,233.333C427.161,251.861 422.57,272.523 423.333,293.333C421.667,318.333 423.333,345 423.333,371.667L338.333,371.667C335,371.667 335,373.333 335,375L335,470C335,473.333 335,473.333 338.333,473.333L423.333,473.333L423.333,730C422.369,730.855 421.772,732.049 421.667,733.333L98.333,733.333C82.204,732.505 69.162,719.463 68.333,703.333C66.667,703.333 66.667,701.667 66.667,700L66.667,101.667C66.667,100 66.667,98.333 68.333,98.333C69.162,82.204 82.204,69.162 98.333,68.333L701.667,68.333C717.796,69.162 730.838,82.204 731.667,98.333L733.333,101.667Z" style="fill:rgb(151,179,165);fill-rule:nonzero;"/>
        </g>
    </g>
</svg>
