<?xml version="1.0" encoding="UTF-8" standalone="no"?>
<!DOCTYPE svg PUBLIC "-//W3C//DTD SVG 1.1//EN" "http://www.w3.org/Graphics/SVG/1.1/DTD/svg11.dtd">
<svg width="100%" height="100%" viewBox="0 0 800 800" version="1.1" xmlns="http://www.w3.org/2000/svg" xmlns:xlink="http://www.w3.org/1999/xlink" xml:space="preserve" xmlns:serif="http://www.serif.com/" style="fill-rule:evenodd;clip-rule:evenodd;stroke-linejoin:round;stroke-miterlimit:2;">
    <g id="Layer_2">
        <g id="invisible_box">
            <rect x="0" y="0" width="800" height="800" style="fill:none;"/>
            <rect x="0" y="0" width="800" height="800" style="fill:none;"/>
        </g>
        <path d="M400,126.667L535,126.667C556.08,126.914 576.953,130.863 596.667,138.333C625.677,149.677 648.657,172.657 660,201.667C667.47,221.38 671.419,242.253 671.667,263.333C673.333,298.333 673.333,310 673.333,398.333C673.333,486.667 673.333,498.333 671.667,533.333C671.419,554.413 667.47,575.287 660,595C648.657,624.01 625.677,646.99 596.667,658.333C576.953,665.803 556.08,669.752 535,670L265,670C243.92,669.752 223.047,665.803 203.333,658.333C174.323,646.99 151.343,624.01 140,595C132.53,575.287 128.581,554.413 128.333,533.333C126.667,498.333 126.667,486.667 126.667,398.333C126.667,310 126.667,298.333 128.333,263.333C128.581,242.253 132.53,221.38 140,201.667C151.343,172.657 174.323,149.677 203.333,138.333C223.047,130.863 243.92,126.914 265,126.667L400,126.667M400,66.667L263.333,66.667C235.545,67.835 208.056,72.884 181.667,81.667C159.431,91.16 139.525,105.378 123.333,123.333C105.891,139.275 92.712,159.331 85,181.667C74.757,207.718 69.117,235.352 68.333,263.333C66.667,298.333 66.667,310 66.667,400C66.667,490 66.667,501.667 68.333,536.667C69.117,564.648 74.757,592.282 85,618.333C92.712,640.669 105.891,660.725 123.333,676.667C139.275,694.109 159.331,707.288 181.667,715C207.718,725.243 235.352,730.883 263.333,731.667L536.667,731.667C564.648,730.883 592.282,725.243 618.333,715C640.669,707.288 660.725,694.109 676.667,676.667C694.019,660.309 707.661,640.415 716.667,618.333C725.449,591.944 730.498,564.455 731.667,536.667C733.333,501.667 733.333,490 733.333,400C733.333,310 733.333,298.333 731.667,263.333C730.498,235.545 725.449,208.056 716.667,181.667C707.661,159.585 694.019,139.691 676.667,123.333C660.309,105.981 640.415,92.339 618.333,83.333C591.944,74.551 564.455,69.502 536.667,68.333C490.949,67.395 442.794,66.716 400,66.667Z" style="fill:rgb(151,179,165);fill-rule:nonzero;"/>
        <path d="M400,228.333C305.826,228.333 228.333,305.826 228.333,400C228.333,494.174 305.826,571.667 400,571.667C494.174,571.667 571.667,494.174 571.667,400C571.667,305.826 494.174,228.333 400,228.333M400,511.667C338.741,511.667 288.333,461.259 288.333,400C288.333,338.741 338.741,288.333 400,288.333C461.259,288.333 511.667,338.741 511.667,400C511.667,461.259 461.259,511.667 400,511.667" style="fill:rgb(151,179,165);fill-rule:nonzero;"/>
        <path d="M618.333,221.667C618.333,243.61 600.277,261.667 578.333,261.667C556.39,261.667 538.333,243.61 538.333,221.667C538.333,199.723 556.39,181.667 578.333,181.667C600.277,181.667 618.333,199.723 618.333,221.667" style="fill:rgb(151,179,165);fill-rule:nonzero;"/>
    </g>
</svg>
