<?xml version="1.0" encoding="UTF-8" standalone="no"?>
<!DOCTYPE svg PUBLIC "-//W3C//DTD SVG 1.1//EN" "http://www.w3.org/Graphics/SVG/1.1/DTD/svg11.dtd">
<svg width="100%" height="100%" viewBox="0 0 500 120" version="1.1" xmlns="http://www.w3.org/2000/svg" xmlns:xlink="http://www.w3.org/1999/xlink" xml:space="preserve" xmlns:serif="http://www.serif.com/" style="fill-rule:evenodd;clip-rule:evenodd;stroke-linejoin:round;stroke-miterlimit:2;">
    <g transform="matrix(1,0,0,1,-4.35221,18.2823)">
        <g transform="matrix(2.66667,0,0,2.66667,5.26288,-384.861)">
            <path d="M102.597,155.828C100.525,156.331 99.679,157.402 99.548,159.788C101.151,158.658 102.669,158.161 102.597,155.828ZM112.055,158.729C110.029,158.358 109.137,159.262 108.696,160.657C108.595,160.975 108.704,161.547 108.931,161.721C109.129,161.873 109.784,161.757 109.971,161.535C110.722,160.647 111.37,159.672 112.055,158.729ZM99.88,161.215C100.333,162.966 101.453,163.488 103.281,162.291C105.019,161.153 106.467,159.583 108.156,158.358C108.937,157.792 109.964,157.514 110.921,157.266C111.387,157.145 111.989,157.558 112.46,157.443C113.922,157.084 114.224,157.68 114.201,159.025C114.172,160.726 113.827,162.624 115.891,163.615C114.381,164.615 114.381,164.615 112.344,161.496C109.08,163.683 109.08,163.683 106.546,161.449C105.58,162.187 104.689,163.052 103.64,163.629C101.793,164.644 99.977,164.193 98.598,162.752C97.137,161.224 97.255,159.337 98.354,157.65C98.967,156.709 99.817,155.76 100.79,155.27C101.504,154.91 102.872,154.945 103.451,155.417C104.492,156.262 104.577,157.712 103.546,158.693C102.541,159.647 101.247,160.297 99.88,161.215Z" style="fill:rgb(81,33,97);fill-rule:nonzero;"/>
        </g>
        <g transform="matrix(2.66667,0,0,2.66667,5.26288,-384.861)">
            <path d="M34.797,160.399C33.811,159.369 33.224,158.756 32.637,158.143C31.855,159.296 30.81,160.356 30.361,161.626C29.886,162.974 31.475,163.344 32.115,163.044C33.077,162.591 33.739,161.499 34.797,160.399ZM30.082,158.153C31.708,157.06 33.018,155.848 34.72,156.899C36.175,157.797 36.509,161.111 35.587,162.697C34.574,164.441 32.744,164.886 30.448,163.925C30.336,164.632 30.227,165.331 30.117,166.03C29.893,166.063 29.668,166.095 29.444,166.128C29.124,164.546 28.516,162.96 28.536,161.382C28.609,155.65 28.87,149.918 29.132,144.189C29.156,143.66 29.684,143.153 29.978,142.636C30.39,143.125 31.113,143.588 31.158,144.108C31.317,145.955 31.336,147.703 30.73,149.651C29.908,152.297 30.243,155.302 30.082,158.153Z" style="fill:rgb(81,33,97);fill-rule:nonzero;"/>
        </g>
        <g transform="matrix(2.66667,0,0,2.66667,5.26288,-384.861)">
            <path d="M121.206,164.695C119.571,166.028 118.523,165.831 117.798,163.875C117.493,163.051 117.189,162.15 117.214,161.294C117.402,155.091 117.672,148.891 117.928,142.691C117.936,142.502 118.067,142.317 118.313,141.699C119.11,142.217 120.465,142.747 120.426,143.134C120.271,144.66 122.21,146.375 120.058,147.764C119.6,148.059 119.282,148.839 119.219,149.429C119.004,151.456 118.781,153.503 118.842,155.533C118.914,157.898 119.165,160.276 119.587,162.602C119.727,163.37 120.641,163.997 121.206,164.695Z" style="fill:rgb(81,33,97);fill-rule:nonzero;"/>
        </g>
        <g transform="matrix(2.66667,0,0,2.66667,5.26288,-384.861)">
            <path d="M68.74,159.247C68.476,158.982 68.212,158.716 67.948,158.451C67.063,159.025 66.06,159.484 65.349,160.225C65.044,160.543 65.346,161.444 65.372,162.08C65.993,162.005 66.854,162.157 67.184,161.808C67.854,161.098 68.238,160.116 68.74,159.247ZM69.824,160.368C69.82,162.111 68.175,163.529 66.191,163.5C64.656,163.477 63.5,161.872 63.379,159.597C63.312,158.323 65.382,156.3 66.779,156.274C68.203,156.247 69.828,158.433 69.824,160.368Z" style="fill:rgb(81,33,97);fill-rule:nonzero;"/>
        </g>
        <g transform="matrix(2.66667,0,0,2.66667,5.26288,-384.861)">
            <path d="M140.423,153.559C138.576,154.645 137.009,155.517 135.494,156.472C134.359,157.187 133.258,157.966 132.203,158.794C131.091,159.665 129.865,160.486 129.022,161.585C127.755,163.237 128.852,165.339 131.103,165.501C135.535,165.82 139.801,165.109 143.71,162.831C143.872,162.737 144.075,162.713 144.637,162.974C144.082,163.609 143.623,164.378 142.956,164.858C139.106,167.626 134.858,168.377 130.32,166.981C127.168,166.012 125.862,162.708 127.919,160.138C129.711,157.899 132.134,156.164 134.296,154.226C134.527,154.019 134.876,153.944 135.197,153.796C134.733,153.376 134.638,153.216 134.542,153.215C132.897,153.194 131.314,152.954 130.699,151.158C130.272,149.915 131.955,147 133.709,146.423C135.872,145.712 138.174,145.303 140.447,145.079C142.02,144.923 142.868,145.993 142.878,147.941C142.238,147.735 141.698,147.69 141.317,147.419C139.393,146.052 137.384,146.209 135.681,147.845C134.897,148.599 133.956,149.191 133.17,149.944C132.833,150.268 132.712,150.815 132.493,151.261C132.913,151.376 133.331,151.58 133.752,151.589C134.708,151.609 135.708,151.699 136.613,151.463C138.928,150.859 139.765,152.311 140.423,153.559Z" style="fill:rgb(81,33,97);fill-rule:nonzero;"/>
        </g>
        <g transform="matrix(2.66667,0,0,2.66667,5.26288,-384.861)">
            <path d="M181.335,156.069C181.628,157.705 180.903,158.614 178.794,159.255C178.605,157.248 179.259,156.427 181.335,156.069ZM186.467,159.61C185.718,160.012 184.948,160.378 184.23,160.827C183.714,161.151 183.282,161.606 182.79,161.97C180.734,163.493 179.122,163.051 178.853,161.142C180.122,160.315 181.595,159.768 182.368,158.709C182.909,157.969 182.835,156.377 182.418,155.441C181.828,154.116 180.538,154.67 179.592,155.274C177.616,156.535 176.443,158.298 176.592,160.74C176.707,162.609 175.413,163.437 173.983,163.578C172.407,163.733 172.371,162.242 172.302,161.069C172.246,160.112 172.223,159.153 172.214,158.195C172.202,156.725 172.868,155.918 174.411,155.811C175.324,155.748 176.222,155.472 177.127,155.292C177.093,155.11 177.06,154.929 177.026,154.748C176.564,154.7 176.101,154.621 175.637,154.611C172.696,154.555 172.693,154.559 173.054,151.566C173.181,150.519 173.701,149.282 172.123,148.974C171.976,148.945 171.276,150.426 171.277,151.206C171.278,153.403 171.091,155.293 168.239,155.326C168.207,155.327 168.178,155.568 168.067,156.038C168.975,156.079 169.822,156.117 170.801,156.161C170.801,158.059 170.623,159.905 170.862,161.695C171.031,162.958 171.516,164.4 172.372,165.241C172.722,165.586 174.549,164.746 175.474,164.11C176.609,163.328 177.427,162.788 178.909,163.573C179.836,164.065 181.448,164.114 182.347,163.621C183.995,162.718 185.344,161.268 186.817,160.045C186.7,159.9 186.584,159.756 186.467,159.61Z" style="fill:rgb(81,33,97);fill-rule:nonzero;"/>
        </g>
        <g transform="matrix(2.66667,0,0,2.66667,5.26288,-384.861)">
            <path d="M39.508,157.804C41.689,154.592 42.285,154.336 44.431,155.944C39.916,157.116 40.825,160.702 40.896,163.899C39.719,163.559 37.896,158.895 37.877,156.292C38.528,156.896 39.017,157.348 39.508,157.804Z" style="fill:rgb(81,33,97);fill-rule:nonzero;"/>
        </g>
        <g transform="matrix(2.66667,0,0,2.66667,5.26288,-384.861)">
            <path d="M84.93,154.077C85.224,149.92 86.403,148.575 90.207,148.775C91.729,148.855 93.254,149.213 94.734,149.607C95.773,149.883 95.823,150.663 95.288,151.543C93.692,154.167 91.402,155.932 88.516,156.866C86.089,157.652 84.896,156.665 84.93,154.077ZM88.401,158.244C89.468,157.835 90.128,157.683 90.679,157.352C92.598,156.199 94.673,155.203 96.33,153.74C98.724,151.627 98.082,148.954 95.081,147.841C93.813,147.37 92.445,147.135 91.104,146.902C85.631,145.949 80.559,147.768 75.449,149.259C74.613,149.503 73.228,149.525 73.794,150.977C74.243,152.129 75.214,152.867 76.591,152.403C77.497,152.098 78.366,151.684 79.244,151.303C82.236,150.003 82.974,150.452 83.174,153.736C83.198,154.131 83.111,154.531 83.122,154.405C82.132,155.168 81.009,155.658 81.024,156.11C81.048,156.805 81.89,157.451 82.315,158.16C82.709,158.817 83.214,159.499 83.317,160.22C83.637,162.451 83.73,164.714 84.051,166.945C84.119,167.416 84.729,167.899 85.204,168.18C85.419,168.307 86.211,167.987 86.231,167.814C86.283,167.335 86.057,166.828 85.958,166.328C85.517,164.12 85.081,161.911 84.644,159.701C84.915,159.614 85.187,159.526 85.459,159.438C85.956,159.785 86.466,160.115 86.948,160.483C92.631,164.819 98.682,168.419 105.806,169.844C106.378,169.959 106.993,169.86 107.587,169.86C100.497,167.205 94.385,163.299 88.401,158.244Z" style="fill:rgb(81,33,97);fill-rule:nonzero;"/>
        </g>
        <g transform="matrix(2.66667,0,0,2.66667,5.26288,-384.861)">
            <path d="M14.442,155.313C15.694,152.237 16.799,149.523 17.904,146.81C18.04,146.817 18.176,146.823 18.312,146.83C18.871,149.483 19.43,152.136 20.044,155.046C18.137,155.136 16.541,155.213 14.442,155.313ZM22.652,158.198C22.1,156.894 21.987,155.964 23.254,155.632C22.663,155.078 21.707,154.614 21.584,153.986C21.123,151.651 20.991,149.253 20.628,146.894C20.401,145.423 20.186,143.894 19.6,142.55C18.737,140.571 17.146,140.433 15.864,142.146C15.433,142.724 15.164,143.675 15.286,144.374C15.893,147.843 14.775,150.953 13.59,154.091C13.166,155.214 12.506,155.613 11.318,155.715C8.524,155.953 5.734,156.3 2.97,156.766C2.014,156.928 1.14,157.572 0,158.103C1.828,159.379 2.503,159.384 3.88,158.485C6.415,156.831 9.281,157.131 12.47,156.797C11.517,159.065 10.803,160.965 9.931,162.791C8.494,165.8 6.876,168.725 5.511,171.765C5.157,172.552 5.458,173.634 5.458,174.58C5.691,174.619 5.925,174.658 6.158,174.697C6.639,173.906 7.225,173.158 7.583,172.314C9.283,168.293 10.908,164.24 12.587,160.209C14.239,156.244 14.255,156.325 18.465,156.231C20.028,156.195 20.561,156.781 20.966,158.209C21.652,160.627 22.511,163.018 23.547,165.308C24.449,167.304 25.687,167.433 27.541,165.911C24.487,164.092 23.838,160.998 22.652,158.198Z" style="fill:rgb(81,33,97);fill-rule:nonzero;"/>
        </g>
        <g transform="matrix(2.66667,0,0,2.66667,5.26288,-384.861)">
            <path d="M58.653,172.475C58.626,172.475 58.598,172.475 58.571,172.474C58.551,172.814 58.541,173.153 58.511,173.492C58.36,175.193 58.333,176.989 56.361,177.729C55.114,178.197 52.059,177.027 51.048,175.8C49.972,174.492 50.032,172.506 51.503,171.706C53.324,170.716 55.351,170.082 57.337,169.448C57.64,169.352 58.429,170.006 58.599,170.459C58.821,171.055 58.653,171.797 58.653,172.475ZM56.201,160.682C55.867,160.691 55.176,160.007 55.233,159.814C55.657,158.381 56.796,158.245 58.135,158.319C58.233,159.894 57.542,160.648 56.201,160.682ZM48.836,156.032C48.745,158.088 47.403,158.751 46.075,159.527C45.636,157.506 46.351,156.544 48.836,156.032ZM65.662,167.426C64.165,167.358 62.761,167.702 61.341,167.797C60.772,167.836 59.656,167.327 59.655,167.065C59.645,163.985 58.261,160.593 61.049,158.444C60.806,157.105 60.678,156.014 60.384,154.97C60.269,154.562 59.782,154.257 59.464,153.906C59.283,153.9 59.102,153.895 58.921,153.889C59.414,156.468 58.208,157.217 56.067,157.376C55.155,157.443 54.211,158.171 53.439,158.794C52.086,159.888 50.962,161.284 49.547,162.276C47.702,163.57 46.431,163.063 45.955,161.273C47.336,160.365 48.708,159.77 49.605,158.755C50.127,158.165 50.106,156.85 49.901,155.959C49.784,155.449 48.72,154.705 48.238,154.806C46.074,155.263 44.639,156.745 43.957,158.821C43.431,160.422 43.691,161.985 45.049,163.123C46.635,164.453 48.674,164.806 50.142,163.475C52.001,161.79 53.644,161.243 56.183,161.709C57.706,161.988 58.216,162.195 58.185,163.628C58.17,164.31 58.131,165.032 58.322,165.671C59.028,168.025 57.711,168.524 55.78,168.899C53.273,169.384 50.923,170.344 49.309,172.525C48.05,174.226 48.354,176.597 50.175,177.703C52.517,179.126 55.083,179.366 57.658,178.383C59.236,177.781 60.272,176.597 60.324,174.821C60.381,172.934 60.337,171.043 60.337,169.222C62.163,168.606 63.912,168.016 65.662,167.426Z" style="fill:rgb(81,33,97);fill-rule:nonzero;"/>
        </g>
        <g transform="matrix(2.66667,0,0,2.66667,5.26288,-384.861)">
            <path d="M163.03,161.296C162.805,161.547 162.21,161.467 161.784,161.539C161.737,161.168 161.55,160.743 161.668,160.435C162.189,159.081 163.131,158.23 164.563,158.101C164.73,158.268 164.897,158.434 165.064,158.6C164.396,159.508 163.78,160.462 163.03,161.296ZM167.224,160.117C167.117,158.366 167.589,157.006 164.689,157.218C161.519,157.45 160.409,157.965 159.821,161.21C159.664,162.075 158.361,162.733 157.584,163.486C156.986,162.794 156.113,162.187 155.861,161.385C155.546,160.382 155.758,159.218 155.713,158.125C155.647,156.51 156.436,155.757 158.02,155.63C158.916,155.558 159.797,155.3 160.686,155.127C160.647,154.905 160.609,154.683 160.57,154.462C159.832,154.462 159.087,154.397 158.357,154.475C156.647,154.657 156.139,153.884 156.461,152.304C156.611,151.57 156.821,150.796 156.716,150.082C156.643,149.586 156.079,149.162 155.734,148.706C155.411,149.12 154.9,149.495 154.804,149.956C154.611,150.884 154.552,151.864 154.606,152.814C154.685,154.19 154.122,154.616 152.775,154.923C150.634,155.411 148.554,156.246 146.536,157.135C146.017,157.364 145.421,158.495 145.587,158.938C145.814,159.542 146.687,160.006 147.38,160.3C147.983,160.556 148.769,160.373 149.384,160.614C149.74,160.754 150.216,161.478 150.115,161.713C149.876,162.267 149.322,162.686 148.744,163.328C148.38,162.606 148.162,162.172 147.944,161.739C147.712,161.705 147.481,161.671 147.25,161.637C147.042,162.464 146.835,163.292 146.627,164.12C147.489,164.281 148.404,164.693 149.198,164.528C149.917,164.379 150.642,163.701 151.113,163.069C151.595,162.422 152.179,161.409 151.974,160.812C151.758,160.185 150.71,159.715 149.933,159.444C149.035,159.131 148.035,159.11 147.079,158.963C147.051,158.718 147.023,158.473 146.996,158.229C149.341,157.388 151.688,156.547 154.407,155.573C154.407,158.2 154.257,160.38 154.476,162.521C154.573,163.466 155.221,164.73 155.987,165.114C156.593,165.418 157.806,164.687 158.667,164.253C159.497,163.834 160.153,162.981 161.008,162.718C162.425,162.281 163.941,162.164 165.679,161.867C167.391,164.455 167.391,164.455 168.377,163.801C167.937,162.465 167.296,161.308 167.224,160.117Z" style="fill:rgb(81,33,97);fill-rule:nonzero;"/>
        </g>
    </g>
</svg>
